<?xml version="1.0" encoding="UTF-8"?>
<svg version="1.1" xmlns="http://www.w3.org/2000/svg" width="612" height="395">
<path d="M0 0 C1.17807724 -0.00335861 2.35615448 -0.00671722 3.56993103 -0.01017761 C6.79149748 -0.01803429 10.01302519 -0.02135443 13.23460007 -0.0219934 C15.25390648 -0.02270646 17.27320623 -0.02484573 19.29251099 -0.02749062 C26.35663274 -0.03673648 33.42073568 -0.04082692 40.48486328 -0.04003906 C47.03648593 -0.0394402 53.58802573 -0.04995627 60.13962746 -0.06578273 C65.78833205 -0.07893442 71.43700985 -0.0842197 77.0857296 -0.08358365 C80.44855607 -0.08333066 83.81125096 -0.08701326 87.17407227 -0.0967617 C112.9097644 -0.16435373 137.14939259 0.68632053 156.90625 19.64135742 C169.29492155 32.87658819 177.19146201 48.92557941 178.25 67.14526367 C178.32927734 68.24354492 178.32927734 68.24354492 178.41015625 69.36401367 C179.08664077 87.01143599 172.79009288 103.69418706 161.27734375 116.99682617 C153.30984344 125.44022728 144.01468058 131.45435986 134.34521484 137.76489258 C130.24785038 140.46432146 126.24385631 143.29537625 122.25 146.14526367 C126.27105832 151.68780352 130.56616822 156.94381 135.00683594 162.15161133 C138.72649496 166.51549218 142.37377269 170.93264328 145.984375 175.38745117 C147.59918011 177.35305878 149.22819704 179.29135803 150.890625 181.21557617 C158.02075954 189.49736217 163.92494784 196.70576316 163.25 208.14526367 C161.6025054 215.85277338 157.73802326 220.79879497 151.25 225.14526367 C145.73230246 227.90411244 139.1326537 228.17087031 133.1796875 226.59838867 C123.47923968 222.43544345 116.82467921 212.83116413 110.57592773 204.68212891 C107.04139231 200.08655111 103.32317269 195.69026987 99.5 191.33276367 C86.8146421 176.83918996 86.8146421 176.83918996 85.25 172.14526367 C80.02030269 172.65169681 76.21470203 175.35029042 71.875 178.08276367 C71.07626465 178.57856934 70.2775293 179.074375 69.45458984 179.58520508 C63.28624719 183.43689149 57.22402168 187.43526283 51.1953125 191.50073242 C45.92084335 195.05152762 40.5793962 198.49896212 35.24389648 201.95703125 C30.52392575 205.01677841 25.81005913 208.08534195 21.10546875 211.16870117 C20.07808594 211.8413501 19.05070312 212.51399902 17.9921875 213.20703125 C16.0028708 214.50997645 14.01453794 215.8144254 12.02734375 217.12060547 C-6.22025231 229.06176275 -6.22025231 229.06176275 -17.8671875 226.71948242 C-23.29699661 224.99757798 -27.48489064 221.81560996 -30.75 217.14526367 C-33.14263063 211.62344767 -34.18857418 207.03667672 -34.13768005 200.99269104 C-34.14306559 200.21224723 -34.14845113 199.43180343 -34.15399987 198.62770981 C-34.16821415 196.03386885 -34.16119209 193.44054296 -34.15405273 190.84667969 C-34.15975971 188.97834872 -34.16672524 187.11002124 -34.17485046 185.24169922 C-34.19276039 180.18176219 -34.19161759 175.12199879 -34.18590808 170.06203961 C-34.18281321 165.8324452 -34.18891198 161.60288398 -34.19494683 157.37329429 C-34.20898323 147.39287762 -34.20743801 137.41254656 -34.19604492 127.43212891 C-34.18456339 117.14716057 -34.19864205 106.86245298 -34.2254414 96.577519 C-34.24761513 87.73565798 -34.25423203 78.89387872 -34.24836498 70.05199188 C-34.24499837 64.7761755 -34.247391 59.50052627 -34.26461601 54.22473335 C-34.28010977 49.26287581 -34.27610255 44.30140391 -34.25731087 39.33956146 C-34.25363178 37.52275858 -34.25671354 35.70592698 -34.26719666 33.88915062 C-34.37280654 14.06712375 -34.37280654 14.06712375 -28.00952816 7.29219913 C-19.90788045 -0.2719287 -10.5166793 -0.004307 0 0 Z M39.25 46.14526367 C40.12596757 50.6993101 42.7972272 53.40132526 45.8125 56.77026367 C46.91926029 58.03215291 48.02472718 59.2951777 49.12890625 60.55932617 C49.66789551 61.17453125 50.20688477 61.78973633 50.76220703 62.42358398 C52.65594646 64.61502646 54.4607252 66.86800484 56.25 69.14526367 C59.38173724 73.10997845 62.6342254 76.94902627 65.9375 80.77026367 C70.97905345 86.60475265 75.87549357 92.54478511 80.7097168 98.55200195 C84.14699104 102.81779235 87.66112161 107.00615449 91.25 111.14526367 C98.00078482 108.03267554 104.06293949 104.14189592 110.20507812 99.96484375 C111.8717933 98.83493757 113.54870003 97.72141751 115.2265625 96.6081543 C123.20456831 91.20478137 130.10099372 86.14795535 132.84375 76.53198242 C134.11662361 69.05384999 132.36068555 61.48746424 128.25 55.14526367 C122.64474374 49.00058945 117.42930396 46.31405072 109.25 45.14526367 C106.95410449 45.05663888 104.65600332 45.01740698 102.35839844 45.01586914 C101.36703888 45.01324066 101.36703888 45.01324066 100.35565186 45.01055908 C98.19019885 45.00618869 96.0248287 45.00906012 93.859375 45.01245117 C92.34816472 45.01177707 90.83695454 45.01080616 89.32574463 45.009552 C86.16864991 45.00808183 83.01158359 45.01020887 79.85449219 45.01489258 C75.80353429 45.02060908 71.75264237 45.01729447 67.70168686 45.01132011 C64.58595275 45.00771279 61.47023439 45.00885354 58.35449982 45.01144791 C56.86013023 45.01211569 55.36575922 45.01129393 53.8713913 45.00896835 C51.78889653 45.00643691 49.70651011 45.01028847 47.62402344 45.01586914 C46.43854919 45.01666473 45.25307495 45.01746033 44.03167725 45.01828003 C41.29280952 44.95470883 41.29280952 44.95470883 39.25 46.14526367 Z M11.25 88.14526367 C11.25 112.56526367 11.25 136.98526367 11.25 162.14526367 C15.76102631 161.0175071 18.94059075 158.93150166 22.75 156.39526367 C24.25905832 155.40429258 25.76817557 154.41341121 27.27734375 153.42260742 C28.47593018 152.63152588 28.47593018 152.63152588 29.69873047 151.82446289 C34.22242443 148.84704978 38.76945611 145.9055278 43.3125 142.95776367 C45.03270323 141.83950656 46.75276845 140.7210371 48.47265625 139.60229492 C49.20234619 139.12767822 49.93203613 138.65306152 50.68383789 138.1640625 C51.20067139 137.82785889 51.71750488 137.49165527 52.25 137.14526367 C51.51468051 132.70852971 50.39310435 130.78341715 47.25 127.52026367 C43.99500472 124.04450373 40.8697883 120.53570588 37.875 116.83276367 C34.07860271 112.14192723 30.2040104 107.52729967 26.28369141 102.94018555 C22.67331864 98.69809326 19.25018646 94.33195283 15.90625 89.87573242 C15.3596875 89.30467773 14.813125 88.73362305 14.25 88.14526367 C13.26 88.14526367 12.27 88.14526367 11.25 88.14526367 Z " fill="#FAF9FB" transform="translate(233.75,84.854736328125)"/>
<path d="M0 0 C0.66 0.33 1.32 0.66 2 1 C2 1.99 2 2.98 2 4 C3.58998179 6.09223772 5.19834558 8.03887455 6.9375 10 C7.95782759 11.17639312 8.97734797 12.35348679 9.99609375 13.53125 C10.50640137 14.11777344 11.01670898 14.70429688 11.54248047 15.30859375 C13.57553201 17.66788706 15.5393801 20.0803602 17.5 22.5 C20.34841214 26.00691602 23.24474192 29.46269589 26.18969727 32.88818359 C42.45981994 51.86768713 42.45981994 51.86768713 41.9375 62.9375 C41.07040014 69.57182216 37.98770753 74.42935215 33.0625 78.875 C27.03108739 83.06006181 21.19660928 83.85193506 14 83 C3.15320901 80.13480993 -4.17460538 69.01285997 -10.67407227 60.53686523 C-14.20860769 55.94128744 -17.92682731 51.54500619 -21.75 47.1875 C-34.4353579 32.69392629 -34.4353579 32.69392629 -36 28 C-38.00016466 26.79117904 -38.00016466 26.79117904 -40 26 C-38.21190303 24.82786955 -36.41940875 23.66244474 -34.625 22.5 C-33.62726563 21.8503125 -32.62953125 21.200625 -31.6015625 20.53125 C-29 19 -29 19 -27 19 C-27 18.34 -27 17.68 -27 17 C-24.8828125 15.4921875 -24.8828125 15.4921875 -22.125 13.875 C-21.22007812 13.33617187 -20.31515625 12.79734375 -19.3828125 12.2421875 C-17 11 -17 11 -15 11 C-15 10.34 -15 9.68 -15 9 C-13.11012684 7.75766478 -11.1608747 6.60490256 -9.1875 5.5 C-6.05526066 3.73367149 -2.99263686 1.99509124 0 0 Z " fill="#E3E3EA" transform="translate(355,229)"/>
<path d="M0 0 C9.03095659 8.95117782 17.02717531 18.45336913 24.81054688 28.47607422 C29.03341269 34.37108999 29.03341269 34.37108999 35 38 C33.27430361 39.13031603 31.54428261 40.25403107 29.8125 41.375 C28.84957031 42.00148437 27.88664062 42.62796875 26.89453125 43.2734375 C24.30196064 44.81988312 21.83146884 45.97508075 19 47 C19 47.66 19 48.32 19 49 C18.0409375 49.433125 18.0409375 49.433125 17.0625 49.875 C14.84793921 50.82823451 14.84793921 50.82823451 14 53 C12.48716022 53.82597574 10.93867512 54.58735157 9.375 55.3125 C6.02245295 56.92633354 2.98766861 58.59380939 0 60.8125 C-3 63 -3 63 -5 63 C-5.2475 63.60585937 -5.495 64.21171875 -5.75 64.8359375 C-7.21070268 67.36477902 -8.48421165 68.19137061 -11 69.625 C-13.3576762 70.98586457 -15.06091111 72.06091111 -17 74 C-19.625 74.125 -19.625 74.125 -22 74 C-18.32628876 69.84710903 -13.77633541 66.76621742 -9 64 C-8.34 64 -7.68 64 -7 64 C-8.36266644 59.96194134 -10.1409151 57.45631882 -13.0625 54.375 C-16.45973695 50.70290569 -19.7508096 46.9820298 -22.9375 43.125 C-23.66839844 42.24070313 -24.39929688 41.35640625 -25.15234375 40.4453125 C-26.74359081 38.33934916 -27.93290228 36.40236659 -29 34 C-28.34 34 -27.68 34 -27 34 C-27 33.01 -27 32.02 -27 31 C-25.35 31 -23.7 31 -22 31 C-21.4254048 34.73486879 -21 38.21293268 -21 42 C-18.3260876 42.89130413 -15.76276177 43.47731534 -13 44 C-13 45.65 -13 47.3 -13 49 C-12.34 49.33 -11.68 49.66 -11 50 C-11 50.66 -11 51.32 -11 52 C-9.02 51.505 -9.02 51.505 -7 51 C-4.8480563 54.22791555 -4.79913557 55.28400809 -5 59 C-4.43152344 58.51789063 -3.86304688 58.03578125 -3.27734375 57.5390625 C1.40934732 53.70520837 5.00478712 51.35740669 11 50 C14.31805142 48.67570727 14.31805142 48.67570727 17 47 C17.33 46.01 17.66 45.02 18 44 C19.33333333 43.66666667 20.66666667 43.33333333 22 43 C24.75256794 41.14835964 24.75256794 41.14835964 27 39 C27 38.34 27 37.68 27 37 C24.1575146 35.42726432 24.1575146 35.42726432 21 35 C20.505 31.535 20.505 31.535 20 28 C17.03 28.33 14.06 28.66 11 29 C10.875 22.25 10.875 22.25 12 20 C12.66 20 13.32 20 14 20 C12.71711243 17.44496043 12.71711243 17.44496043 11 15 C10.01 15 9.02 15 8 15 C8 14.34 8 13.68 8 13 C6.02 13.99 6.02 13.99 4 15 C1.875 9.375 1.875 9.375 3 6 C2.34 6 1.68 6 1 6 C0.67 4.02 0.34 2.04 0 0 Z " fill="#A7ACB6" transform="translate(293,158)"/>
<path d="M0 0 C0.66 0.33 1.32 0.66 2 1 C2 1.99 2 2.98 2 4 C3.6522467 6.17555615 5.32121017 8.20756294 7.125 10.25 C7.87680542 11.11854614 7.87680542 11.11854614 8.64379883 12.00463867 C9.63828277 13.15266489 10.63569877 14.29815867 11.63623047 15.44091797 C13.33621068 17.38436115 15.01280548 19.34725606 16.6875 21.3125 C17.450625 22.199375 18.21375 23.08625 19 24 C18.67 24.66 18.34 25.32 18 26 C17.566875 25.525625 17.13375 25.05125 16.6875 24.5625 C14.97690387 22.76313043 14.97690387 22.76313043 12 22 C10.8125 19.9375 10.8125 19.9375 10 18 C8.68 18.33 7.36 18.66 6 19 C6 17.68 6 16.36 6 15 C5.34 15 4.68 15 4 15 C3.505 13.515 3.505 13.515 3 12 C1.02 12 -0.96 12 -3 12 C-3.495 11.01 -3.495 11.01 -4 10 C-3.67 9.34 -3.34 8.68 -3 8 C-5.44480079 8.18828772 -5.44480079 8.18828772 -8 9 C-9.36020151 10.96758273 -9.36020151 10.96758273 -10 13 C-10.99 13 -11.98 13 -13 13 C-13.66 14.32 -14.32 15.64 -15 17 C-15.7425 16.896875 -16.485 16.79375 -17.25 16.6875 C-18.1575 16.790625 -19.065 16.89375 -20 17 C-20.61875 17.78375 -21.2375 18.5675 -21.875 19.375 C-24.58495076 22.72258623 -26.86813522 23.12595168 -31 24 C-28.8614515 26.1385485 -27.86724686 26.42655063 -25 27 C-25.66 28.98 -26.32 30.96 -27 33 C-26.34 33.33 -25.68 33.66 -25 34 C-25 34.66 -25 35.32 -25 36 C-22.525 35.505 -22.525 35.505 -20 35 C-18.977377 39.72963136 -19 44.17255145 -19 49 C-23.25342659 44.87546513 -27.1403185 40.49270444 -31 36 C-31.51433594 35.41347656 -32.02867187 34.82695312 -32.55859375 34.22265625 C-36 30.23530453 -36 30.23530453 -36 28 C-37.32 27.34 -38.64 26.68 -40 26 C-38.21190303 24.82786955 -36.41940875 23.66244474 -34.625 22.5 C-33.62726563 21.8503125 -32.62953125 21.200625 -31.6015625 20.53125 C-29 19 -29 19 -27 19 C-27 18.34 -27 17.68 -27 17 C-24.8828125 15.4921875 -24.8828125 15.4921875 -22.125 13.875 C-21.22007812 13.33617187 -20.31515625 12.79734375 -19.3828125 12.2421875 C-17 11 -17 11 -15 11 C-15 10.34 -15 9.68 -15 9 C-13.11012684 7.75766478 -11.1608747 6.60490256 -9.1875 5.5 C-6.05526066 3.73367149 -2.99263686 1.99509124 0 0 Z M-4 6 C-3.67 6.66 -3.34 7.32 -3 8 C-2.34 7.67 -1.68 7.34 -1 7 C-1.99 6.67 -2.98 6.34 -4 6 Z " fill="#A3A7B2" transform="translate(355,229)"/>
<path d="M0 0 C1.17807724 -0.00335861 2.35615448 -0.00671722 3.56993103 -0.01017761 C6.79149748 -0.01803429 10.01302519 -0.02135443 13.23460007 -0.0219934 C15.25390648 -0.02270646 17.27320623 -0.02484573 19.29251099 -0.02749062 C26.35663274 -0.03673648 33.42073568 -0.04082692 40.48486328 -0.04003906 C47.03648593 -0.0394402 53.58802573 -0.04995627 60.13962746 -0.06578273 C65.78833205 -0.07893442 71.43700985 -0.0842197 77.0857296 -0.08358365 C80.44855607 -0.08333066 83.81125096 -0.08701326 87.17407227 -0.0967617 C120.20142936 -0.1835045 120.20142936 -0.1835045 134.25 5.14526367 C130.76341319 6.30745927 129.14706423 5.92690906 125.5625 5.27026367 C108.68588453 2.49725009 91.48873977 2.94033698 74.4375 2.82885742 C71.76993435 2.80824711 69.10237359 2.78729243 66.43481445 2.7658844 C60.17382698 2.71638185 53.91281618 2.67128944 47.65178394 2.62786204 C40.51246472 2.57812193 33.37318678 2.52334272 26.2339077 2.46818244 C11.57264439 2.3550157 -3.08866007 2.24803986 -17.75 2.14526367 C-17.75 1.81526367 -17.75 1.48526367 -17.75 1.14526367 C-11.85139319 -0.1328605 -6.00314035 -0.00245852 0 0 Z " fill="#896AA9" transform="translate(233.75,84.854736328125)"/>
<path d="M0 0 C0.33 0 0.66 0 1 0 C1 63.69 1 127.38 1 193 C1.99 193.33 2.98 193.66 4 194 C4 195.65 4 197.3 4 199 C1.06325589 196.19094041 0.03498486 194.93139135 -0.12304783 190.72413445 C-0.12727504 189.2809291 -0.12586695 187.83770136 -0.12025452 186.39450073 C-0.12110894 185.60058272 -0.12196337 184.80666472 -0.12284368 183.98868859 C-0.12449796 181.31388832 -0.11897796 178.63915001 -0.11352539 175.96435547 C-0.11324348 174.05275474 -0.11340133 172.14115389 -0.1139679 170.22955322 C-0.11425573 165.02734881 -0.10836133 159.82516728 -0.10139394 154.6229682 C-0.095158 149.19103962 -0.09455641 143.75911056 -0.09336853 138.32717896 C-0.09025593 128.03536038 -0.08204349 117.74355239 -0.07201904 107.45173848 C-0.06085571 95.7372852 -0.0553469 84.02283143 -0.05032361 72.30837417 C-0.03986082 48.20557691 -0.02226274 24.10278904 0 0 Z " fill="#EFDAF9" transform="translate(201,104)"/>
<path d="M0 0 C9.65788658 -0.02320886 19.31576349 -0.04095859 28.97367191 -0.05181217 C33.45861359 -0.05702233 37.94353613 -0.06408598 42.4284668 -0.07543945 C46.75971603 -0.0863348 51.0909469 -0.0922909 55.42220879 -0.09487724 C57.07154059 -0.09671953 58.72087144 -0.100317 60.37019539 -0.10573006 C62.68700427 -0.11302878 65.00373804 -0.11398723 67.32055664 -0.11352539 C68.6373793 -0.115746 69.95420197 -0.11796661 71.31092834 -0.12025452 C74.96499275 -0.00114115 78.41419517 0.28121313 82 1 C82.495 1.99 82.495 1.99 83 3 C81.84894775 2.83701416 80.69789551 2.67402832 79.51196289 2.50610352 C72.29957782 1.71018696 65.05392283 1.87664328 57.80859375 1.90234375 C56.25204006 1.90421211 54.69548577 1.90563403 53.13893127 1.90663147 C49.07016333 1.91042378 45.00143189 1.92022547 40.93267822 1.93133545 C36.76957696 1.94162075 32.60646972 1.94614425 28.44335938 1.95117188 C20.29555629 1.96185114 12.1477827 1.97888741 4 2 C5.87514692 5.18019422 7.74307788 8.04215493 10.1875 10.8125 C10.71730469 11.41707031 11.24710937 12.02164063 11.79296875 12.64453125 C12.19128906 13.09183594 12.58960938 13.53914062 13 14 C12.67 14.66 12.34 15.32 12 16 C11.608125 15.484375 11.21625 14.96875 10.8125 14.4375 C9.9153125 13.7259375 9.9153125 13.7259375 9 13 C6.34533951 13.23043864 6.34533951 13.23043864 4 14 C4.0825 12.948125 4.165 11.89625 4.25 10.8125 C3.96197608 6.4201352 2.897453 5.16908922 0 2 C0 1.34 0 0.68 0 0 Z " fill="#9D7DCD" transform="translate(269,129)"/>
<path d="M0 0 C0.99 0 1.98 0 3 0 C-3.86211946 15.29172813 -22.19481936 24.87519723 -36 33 C-36.33 32.01 -36.66 31.02 -37 30 C-35.54634731 28.82750647 -34.08692581 27.66216184 -32.625 26.5 C-31.81289063 25.8503125 -31.00078125 25.200625 -30.1640625 24.53125 C-28 23 -28 23 -26 23 C-26 22.34 -26 21.68 -26 21 C-24.865625 20.71125 -23.73125 20.4225 -22.5625 20.125 C-21.386875 19.75375 -20.21125 19.3825 -19 19 C-18.67 18.34 -18.34 17.68 -18 17 C-15.4375 16.375 -15.4375 16.375 -13 16 C-13 15.34 -13 14.68 -13 14 C-12.01 14 -11.02 14 -10 14 C-10.33 13.01 -10.66 12.02 -11 11 C-10.01 11 -9.02 11 -8 11 C-8 10.34 -8 9.68 -8 9 C-7.34 9 -6.68 9 -6 9 C-5.7525 8.21625 -5.505 7.4325 -5.25 6.625 C-3.84610901 3.67682892 -2.99324263 3.0975223 0 2 C0 1.34 0 0.68 0 0 Z " fill="#C4AED6" transform="translate(397,194)"/>
<path d="M0 0 C-0.66 1.98 -1.32 3.96 -2 6 C-1.34 6.33 -0.68 6.66 0 7 C0 7.66 0 8.32 0 9 C1.65 8.67 3.3 8.34 5 8 C6.022623 12.72963136 6 17.17255145 6 22 C4.30486437 20.35623212 2.6467757 18.69161365 1 17 C0.37609375 16.37222656 -0.2478125 15.74445313 -0.890625 15.09765625 C-5.90100659 9.79194729 -5.90100659 9.79194729 -6.4375 5.5 C-6.293125 4.675 -6.14875 3.85 -6 3 C-7.32 2.34 -8.64 1.68 -10 1 C-6.1496895 -1.56687367 -4.41430237 -0.83288724 0 0 Z " fill="#C9CBD8" transform="translate(330,256)"/>
<path d="M0 0 C1.65 0 3.3 0 5 0 C5.5745952 3.73486879 6 7.21293268 6 11 C8.6739124 11.89130413 11.23723823 12.47731534 14 13 C14 14.65 14 16.3 14 18 C14.66 18.33 15.32 18.66 16 19 C16 19.66 16 20.32 16 21 C17.32 20.67 18.64 20.34 20 20 C20.66 20.99 21.32 21.98 22 23 C21.67 23.99 21.34 24.98 21 26 C11.86100312 24.34570034 5.15705307 13.98662999 0 7 C-0.70766351 5.68796548 -1.39397269 4.36196664 -2 3 C-1.34 3 -0.68 3 0 3 C0 2.01 0 1.02 0 0 Z " fill="#AD9BC6" transform="translate(266,189)"/>
<path d="M0 0 C3.46772333 3.43659476 6.86507833 6.92123415 10.1875 10.5 C11.04730469 11.4178125 11.90710938 12.335625 12.79296875 13.28125 C15.67125803 16.82689485 17 19.42510478 17 24 C16.6937566 25.33981486 16.36548445 26.67511887 16 28 C14.35 28.33 12.7 28.66 11 29 C10.875 22.25 10.875 22.25 12 20 C12.66 20 13.32 20 14 20 C12.71711243 17.44496043 12.71711243 17.44496043 11 15 C10.01 15 9.02 15 8 15 C8 14.34 8 13.68 8 13 C6.02 13.99 6.02 13.99 4 15 C1.875 9.375 1.875 9.375 3 6 C2.34 6 1.68 6 1 6 C0.67 4.02 0.34 2.04 0 0 Z " fill="#D3C8E3" transform="translate(293,158)"/>
<path d="M0 0 C-3.38118545 3.76933174 -7.18499868 6.14458175 -11.5 8.6875 C-12.16386719 9.09033203 -12.82773438 9.49316406 -13.51171875 9.90820312 C-20.17810535 13.88009214 -26.5340241 15.28611198 -34.2578125 13.46875 C-38.2786158 12.10375404 -40.86549396 10.8687922 -43 7 C-40.1875 7.3125 -40.1875 7.3125 -37 8 C-36.608125 8.5053125 -36.21625 9.010625 -35.8125 9.53125 C-32.85985208 11.92391297 -29.43528383 11.31089613 -25.8125 11.1875 C-25.06291016 11.17396484 -24.31332031 11.16042969 -23.54101562 11.14648438 C-21.69370233 11.11118539 -19.84675934 11.05737917 -18 11 C-18 10.01 -18 9.02 -18 8 C-17.01 8 -16.02 8 -15 8 C-14.67 7.01 -14.34 6.02 -14 5 C-14 5.66 -14 6.32 -14 7 C-13.01 7 -12.02 7 -11 7 C-11 6.34 -11 5.68 -11 5 C-10.34 5 -9.68 5 -9 5 C-8.71125 4.360625 -8.4225 3.72125 -8.125 3.0625 C-6.14499356 -0.56751181 -3.81564568 -0.10041173 0 0 Z " fill="#B69BC7" transform="translate(250,298)"/>
<path d="M0 0 C1.32 0.99 2.64 1.98 4 3 C4 3.66 4 4.32 4 5 C3.01 5 2.02 5 1 5 C1 29.42 1 53.84 1 79 C1.99 79.33 2.98 79.66 4 80 C2.02 80.495 2.02 80.495 0 81 C0 54.27 0 27.54 0 0 Z " fill="#744F98" transform="translate(244,168)"/>
<path d="M0 0 C3.19855555 3.09860069 6.2813468 6.29983776 9.3125 9.5625 C10.00988281 10.30628906 10.70726562 11.05007812 11.42578125 11.81640625 C13 14 13 14 13 18 C10.69 17.67 8.38 17.34 6 17 C5.67 14.69 5.34 12.38 5 10 C3.68 10 2.36 10 1 10 C0.67 8.35 0.34 6.7 0 5 C0.66 4.67 1.32 4.34 2 4 C1.34 2.68 0.68 1.36 0 0 Z " fill="#9F93BD" transform="translate(308,176)"/>
<path d="M0 0 C2.9375 0.75 2.9375 0.75 6 2 C7.38501886 4.51034669 7.06605896 5.73576417 6.375 8.5 C4.69725141 11.55045198 2.81973211 12.98590564 0 15 C-0.66 15.556875 -1.32 16.11375 -2 16.6875 C-4.35609041 18.23368433 -6.20894977 18.70620524 -9 19 C-9.66 18.67 -10.32 18.34 -11 18 C-8.87885041 16.49428254 -6.75346385 14.99531321 -4.625 13.5 C-3.72007812 12.85611328 -3.72007812 12.85611328 -2.796875 12.19921875 C1.7734375 9 1.7734375 9 4 9 C2.80100302 5.9168649 1.52299523 2.93720508 0 0 Z " fill="#BCA2CC" transform="translate(282,213)"/>
<path d="M0 0 C2 1 2 1 3.1171875 3.6015625 C4.08768179 7.33753608 4.19770391 10.52169264 4.125 14.375 C4.10695313 15.62023437 4.08890625 16.86546875 4.0703125 18.1484375 C4.04710937 19.08945313 4.02390625 20.03046875 4 21 C3.34 21 2.68 21 2 21 C2.33 22.32 2.66 23.64 3 25 C-2.445 29.455 -2.445 29.455 -8 34 C-8.66 33.67 -9.32 33.34 -10 33 C-9.46890625 32.62230469 -8.9378125 32.24460938 -8.390625 31.85546875 C-2.38611788 27.17677434 0.55706747 22.5135558 2 15 C2.05854982 11.56019791 1.66653122 8.36901233 1 5 C0.7215625 3.453125 0.7215625 3.453125 0.4375 1.875 C0.293125 1.25625 0.14875 0.6375 0 0 Z " fill="#8F71AF" transform="translate(364,144)"/>
<path d="M0 0 C-0.59933417 3.67049854 -0.91716762 3.93815729 -4.16015625 6.359375 C-5.45337476 7.16846555 -6.7545379 7.96496703 -8.0625 8.75 C-9.05733398 9.36681641 -9.05733398 9.36681641 -10.07226562 9.99609375 C-11.70818186 11.00824336 -13.35324932 12.00557507 -15 13 C-15.33 12.01 -15.66 11.02 -16 10 C-14.54634731 8.82750647 -13.08692581 7.66216184 -11.625 6.5 C-10.40683594 5.52546875 -10.40683594 5.52546875 -9.1640625 4.53125 C-7 3 -7 3 -5 3 C-5 2.34 -5 1.68 -5 1 C-2 0 -2 0 0 0 Z " fill="#C7B1D6" transform="translate(376,214)"/>
<path d="M0 0 C5.87874404 4.03113877 10.50891698 8.47035403 15 14 C14.67 14.66 14.34 15.32 14 16 C13.566875 15.525625 13.13375 15.05125 12.6875 14.5625 C10.97690387 12.76313043 10.97690387 12.76313043 8 12 C6.8125 9.9375 6.8125 9.9375 6 8 C4.68 8.33 3.36 8.66 2 9 C2 7.68 2 6.36 2 5 C1.34 5 0.68 5 0 5 C0 3.35 0 1.7 0 0 Z " fill="#C8C2D6" transform="translate(359,239)"/>
<path d="M0 0 C0.66 0.33 1.32 0.66 2 1 C1.01 2.485 1.01 2.485 0 4 C0.66 4.66 1.32 5.32 2 6 C0.02 6.99 0.02 6.99 -2 8 C-1.34 8.66 -0.68 9.32 0 10 C-0.375 12.125 -0.375 12.125 -1 14 C-2.37562854 12.71034824 -3.70766393 11.37310707 -5 10 C-5 9.34 -5 8.68 -5 8 C-6.32 7.34 -7.64 6.68 -9 6 C-6.03 4.02 -3.06 2.04 0 0 Z " fill="#938DAC" transform="translate(324,249)"/>
<path d="M0 0 C1.175625 0.7115625 1.175625 0.7115625 2.375 1.4375 C3.88948678 2.33898023 5.4235897 3.21179485 7 4 C5.27136297 5.10499565 3.54206612 6.20895914 1.8125 7.3125 C0.84957031 7.92738281 -0.11335938 8.54226562 -1.10546875 9.17578125 C-2.53826172 10.07876953 -2.53826172 10.07876953 -4 11 C-5.35544922 11.88751953 -5.35544922 11.88751953 -6.73828125 12.79296875 C-7.48464844 13.19128906 -8.23101562 13.58960938 -9 14 C-9.66 13.67 -10.32 13.34 -11 13 C-10.67 12.01 -10.34 11.02 -10 10 C-8.66666667 9.66666667 -7.33333333 9.33333333 -6 9 C-2.8614778 6.95631113 -1.26272649 5.88922812 -0.1875 2.25 C-0.125625 1.5075 -0.06375 0.765 0 0 Z " fill="#9DA0AD" transform="translate(321,192)"/>
<path d="M0 0 C6.71244635 5.10729614 6.71244635 5.10729614 8 10 C8 12.62113708 7.68707555 14.50935112 7 17 C5.35 17.33 3.7 17.66 2 18 C1.875 11.25 1.875 11.25 3 9 C3.66 9 4.32 9 5 9 C4.54625 8.2575 4.0925 7.515 3.625 6.75 C2.31359204 4.53069422 1.11719197 2.32032178 0 0 Z " fill="#C4BCD7" transform="translate(302,169)"/>
<path d="M0 0 C-0.309375 0.886875 -0.61875 1.77375 -0.9375 2.6875 C-1.8290671 5.46709155 -2.49377007 8.13136375 -3 11 C-3.99 10.34 -4.98 9.68 -6 9 C-6.1875 5.875 -6.1875 5.875 -6 3 C-7.32 2.34 -8.64 1.68 -10 1 C-6.1496895 -1.56687367 -4.41430237 -0.83288724 0 0 Z " fill="#A5A6BC" transform="translate(330,256)"/>
<path d="M0 0 C2.74148672 0.37047118 4.58593199 0.68587944 6.8125 2.375 C8 4 8 4 8 7 C7.01 7.33 6.02 7.66 5 8 C4.34 7.34 3.68 6.68 3 6 C2.01 6.33 1.02 6.66 0 7 C-0.99 6.34 -1.98 5.68 -3 5 C-3 4.34 -3 3.68 -3 3 C-2.34 3 -1.68 3 -1 3 C-0.67 2.01 -0.34 1.02 0 0 Z " fill="#EAE9F2" transform="translate(299,171)"/>
<path d="M0 0 C0.66 0.33 1.32 0.66 2 1 C2 1.99 2 2.98 2 4 C3.30576503 5.88669495 3.30576503 5.88669495 5 7.6875 C5.556875 8.31011719 6.11375 8.93273437 6.6875 9.57421875 C7.120625 10.04472656 7.55375 10.51523438 8 11 C7.67 11.66 7.34 12.32 7 13 C6.01 12.34 5.02 11.68 4 11 C1.35367713 11.3121764 1.35367713 11.3121764 -1 12 C-1.33 11.01 -1.66 10.02 -2 9 C-0.68 8.34 0.64 7.68 2 7 C1.38125 6.690625 0.7625 6.38125 0.125 6.0625 C-1.25 5.375 -2.625 4.6875 -4 4 C-2.68 2.68 -1.36 1.36 0 0 Z " fill="#A19ABD" transform="translate(355,229)"/>
<path d="M0 0 C1.65 0 3.3 0 5 0 C2.07084473 3.12304734 -0.96858351 5.48990091 -4.5625 7.8125 C-5.51253906 8.43769531 -6.46257812 9.06289063 -7.44140625 9.70703125 C-8.28574219 10.13371094 -9.13007813 10.56039063 -10 11 C-10.99 10.67 -11.98 10.34 -13 10 C-12.67 9.34 -12.34 8.68 -12 8 C-11.01 8 -10.02 8 -9 8 C-8.67 7.01 -8.34 6.02 -8 5 C-5.68191636 3.96514123 -3.34824702 2.9644586 -1 2 C-0.67 1.34 -0.34 0.68 0 0 Z " fill="#C9B4DF" transform="translate(285,272)"/>
<path d="M0 0 C0.66 0.33 1.32 0.66 2 1 C0.73046875 2.49739583 -0.5390625 3.99479167 -1.80859375 5.4921875 C-3.0878152 7.00594079 -3.0878152 7.00594079 -4 9 C-11.11940299 11.55223881 -11.11940299 11.55223881 -15 10 C-12.55799529 7.94871604 -10.48424833 6.78817342 -7.5 5.5625 C-4.14758395 4.06588569 -2.36620245 2.74479484 0 0 Z " fill="#D4C3DD" transform="translate(363,171)"/>
<path d="M0 0 C6.13602988 1.41600689 10.26698362 5.0663375 15 9 C13.140625 9.58984375 13.140625 9.58984375 11 10 C8.75 8.5625 8.75 8.5625 7 7 C7.33 6.34 7.66 5.68 8 5 C6.02 5.33 4.04 5.66 2 6 C2 4.68 2 3.36 2 2 C1.34 2 0.68 2 0 2 C0 1.34 0 0.68 0 0 Z " fill="#B69FC9" transform="translate(374,94)"/>
<path d="M0 0 C4.50416844 3.67006318 6.76790201 8.74908096 9 14 C9 14.66 9 15.32 9 16 C8.34 16 7.68 16 7 16 C7 15.34 7 14.68 7 14 C6.36449219 13.76152344 5.72898437 13.52304688 5.07421875 13.27734375 C3 12 3 12 2.20703125 9.94140625 C2.07683594 9.15636719 1.94664062 8.37132813 1.8125 7.5625 C1.34423584 4.90608554 0.8576223 2.57286691 0 0 Z " fill="#AA92C1" transform="translate(398,115)"/>
<path d="M0 0 C0.33 0.66 0.66 1.32 1 2 C1.66 2.2475 2.32 2.495 3 2.75 C3.66 3.1625 4.32 3.575 5 4 C5.38133299 5.9914056 5.71325582 7.99279077 6 10 C7.43691955 11.85801239 7.43691955 11.85801239 9 13 C8.67 13.66 8.34 14.32 8 15 C6.68181446 13.56771184 5.37063296 12.12897516 4.0625 10.6875 C3.33160156 9.88699219 2.60070312 9.08648437 1.84765625 8.26171875 C0 6 0 6 -1 3 C-0.67 2.01 -0.34 1.02 0 0 Z " fill="#B49DC7" transform="translate(255,177)"/>
<path d="M0 0 C2.54140493 1.46519774 4.88875077 2.95224699 7 5 C7.4375 8.3125 7.4375 8.3125 7 11 C3.73991357 7.83047153 0.77762123 4.60062011 -2 1 C-1.34 0.67 -0.68 0.34 0 0 Z " fill="#A896CB" transform="translate(329,267)"/>
<path d="M0 0 C0.33 0.66 0.66 1.32 1 2 C3.32156597 2.40729228 5.6568787 2.74438677 8 3 C8 3.99 8 4.98 8 6 C6.35 6.66 4.7 7.32 3 8 C3 7.34 3 6.68 3 6 C2.34 6 1.68 6 1 6 C0.34 4.35 -0.32 2.7 -1 1 C-0.67 0.67 -0.34 0.34 0 0 Z " fill="#F0EFF6" transform="translate(369,256)"/>
<path d="M0 0 C1.65 0 3.3 0 5 0 C5.33 2.31 5.66 4.62 6 7 C4.35 7.33 2.7 7.66 1 8 C0.01 6.35 -0.98 4.7 -2 3 C-1.34 3 -0.68 3 0 3 C0 2.01 0 1.02 0 0 Z " fill="#D4CCDE" transform="translate(266,189)"/>
<path d="M0 0 C0.66 0 1.32 0 2 0 C2.4125 0.66 2.825 1.32 3.25 2 C4.90933823 4.3664015 4.90933823 4.3664015 8.1875 4.25 C9.115625 4.1675 10.04375 4.085 11 4 C11 4.99 11 5.98 11 7 C9.35 7.33 7.7 7.66 6 8 C4.9970458 6.85675161 3.99770973 5.71032809 3 4.5625 C2.443125 3.92441406 1.88625 3.28632813 1.3125 2.62890625 C0 1 0 1 0 0 Z " fill="#B19EC5" transform="translate(268,197)"/>
<path d="M0 0 C1.16161779 2.86578759 0.9946154 4.01630163 0.00390625 7.015625 C-0.70958984 8.61664063 -0.70958984 8.61664063 -1.4375 10.25 C-1.91058594 11.32765625 -2.38367188 12.4053125 -2.87109375 13.515625 C-3.24363281 14.33546875 -3.61617188 15.1553125 -4 16 C-4.33 16 -4.66 16 -5 16 C-5.25 9.375 -5.25 9.375 -3 6 C-2.34 6 -1.68 6 -1 6 C-0.67 4.02 -0.34 2.04 0 0 Z " fill="#A990BC" transform="translate(409,171)"/>
<path d="M0 0 C1.0625 1.875 1.0625 1.875 2 4 C1.67 4.66 1.34 5.32 1 6 C0.01 6 -0.98 6 -2 6 C-2 6.66 -2 7.32 -2 8 C-3.32 7.67 -4.64 7.34 -6 7 C-6 5.68 -6 4.36 -6 3 C-3.525 3.99 -3.525 3.99 -1 5 C-0.67 3.35 -0.34 1.7 0 0 Z " fill="#FAF8FA" transform="translate(384,302)"/>
<path d="M0 0 C2.5 2.25 2.5 2.25 5 5 C5 6.32 5 7.64 5 9 C4.34 9 3.68 9 3 9 C0.8125 6.75 0.8125 6.75 -1 4 C-0.75 1.6875 -0.75 1.6875 0 0 Z " fill="#D4C3E2" transform="translate(389,273)"/>
<path d="M0 0 C3.33333333 3.33333333 6.66666667 6.66666667 10 10 C9.67 10.66 9.34 11.32 9 12 C8.566875 11.525625 8.13375 11.05125 7.6875 10.5625 C5.97690387 8.76313043 5.97690387 8.76313043 3 8 C0 2.77777778 0 2.77777778 0 0 Z " fill="#9275B5" transform="translate(364,243)"/>
<path d="M0 0 C0.33 0 0.66 0 1 0 C1.05437607 1.58294782 1.09296271 3.16644256 1.125 4.75 C1.14820313 5.63171875 1.17140625 6.5134375 1.1953125 7.421875 C0.99139502 10.1135858 0.36551721 11.69904974 -1 14 C-1.22331199 12.41870971 -1.42804644 10.83478911 -1.625 9.25 C-1.74101562 8.36828125 -1.85703125 7.4865625 -1.9765625 6.578125 C-2.00207817 3.77140122 -1.44843844 2.36615134 0 0 Z " fill="#FDF7FA" transform="translate(394,285)"/>
<path d="M0 0 C0.66 0.33 1.32 0.66 2 1 C1.071875 1.3403125 1.071875 1.3403125 0.125 1.6875 C-2.61410209 3.37929835 -3.05024472 4.99244161 -4 8 C-5.98 8 -7.96 8 -10 8 C-6.97727468 4.74475735 -3.74281699 2.38179263 0 0 Z " fill="#8D74A6" transform="translate(261,237)"/>
<path d="M0 0 C2.9375 0.75 2.9375 0.75 6 2 C7.406617 4.90700847 7.04092665 5.87722005 6 9 C5.34 9 4.68 9 4 9 C3.566875 7.88625 3.566875 7.88625 3.125 6.75 C2.17697356 4.43260203 1.15154089 2.22082885 0 0 Z " fill="#8577A9" transform="translate(282,213)"/>
<path d="M0 0 C0.66 0.99 1.32 1.98 2 3 C1.67 3.99 1.34 4.98 1 6 C-0.32 5.67 -1.64 5.34 -3 5 C-3.33 3.68 -3.66 2.36 -4 1 C-2 0 -2 0 0 0 Z " fill="#C1C0D3" transform="translate(286,209)"/>
<path d="M0 0 C0.99 0 1.98 0 3 0 C3.33 1.32 3.66 2.64 4 4 C4.66 4 5.32 4 6 4 C7.6875 6.375 7.6875 6.375 9 9 C8.67 9.66 8.34 10.32 8 11 C7.67 10.01 7.34 9.02 7 8 C6.34 8 5.68 8 5 8 C3.7109375 6.50390625 3.7109375 6.50390625 2.375 4.5625 C1.92898438 3.92441406 1.48296875 3.28632813 1.0234375 2.62890625 C0 1 0 1 0 0 Z " fill="#F6E9FA" transform="translate(259,184)"/>
<path d="M0 0 C2.64 1.98 5.28 3.96 8 6 C7.67 6.66 7.34 7.32 7 8 C6.4121875 7.2265625 6.4121875 7.2265625 5.8125 6.4375 C4.9153125 5.7259375 4.9153125 5.7259375 4 5 C1.34533951 5.23043864 1.34533951 5.23043864 -1 6 C-0.67 4.02 -0.34 2.04 0 0 Z " fill="#CABBDA" transform="translate(274,137)"/>
<path d="M0 0 C1.485 0.99 1.485 0.99 3 2 C3 2.66 3 3.32 3 4 C3.66 4 4.32 4 5 4 C5.33 3.01 5.66 2.02 6 1 C6 3.64 6 6.28 6 9 C1.2 5.67692308 1.2 5.67692308 0.1875 2.25 C0.125625 1.5075 0.06375 0.765 0 0 Z " fill="#F8EFFA" transform="translate(345,285)"/>
<path d="M0 0 C1.32 0.33 2.64 0.66 4 1 C1.03 3.475 1.03 3.475 -2 6 C-2.66 5.67 -3.32 5.34 -4 5 C-4.33 5.66 -4.66 6.32 -5 7 C-5 6.01 -5 5.02 -5 4 C-4.0409375 3.8453125 -4.0409375 3.8453125 -3.0625 3.6875 C-2.381875 3.460625 -1.70125 3.23375 -1 3 C-0.67 2.01 -0.34 1.02 0 0 Z " fill="#D4C7E2" transform="translate(249,245)"/>
<path d="M0 0 C2.64 1.98 5.28 3.96 8 6 C7.67 6.66 7.34 7.32 7 8 C4.625 7.375 4.625 7.375 2 6 C0.6875 2.875 0.6875 2.875 0 0 Z " fill="#C3B1DD" transform="translate(370,252)"/>
<path d="M0 0 C0 0.99 0 1.98 0 3 C-2.27837542 5.27837542 -3.50812237 5.96646289 -6.75 6.1875 C-7.86375 6.0946875 -7.86375 6.0946875 -9 6 C-3.2 0 -3.2 0 0 0 Z " fill="#A385BB" transform="translate(280,226)"/>
<path d="M0 0 C-0.875 3.875 -0.875 3.875 -2 5 C-3.66617115 5.04063832 -5.33388095 5.042721 -7 5 C-7 4.34 -7 3.68 -7 3 C-6.34 3 -5.68 3 -5 3 C-5 2.34 -5 1.68 -5 1 C-2 0 -2 0 0 0 Z " fill="#DFCFEA" transform="translate(376,214)"/>
<path d="M0 0 C1.65 0 3.3 0 5 0 C4.01 0.495 4.01 0.495 3 1 C3.680625 2.11375 3.680625 2.11375 4.375 3.25 C5.68640796 5.46930578 6.88280803 7.67967822 8 10 C1.42857143 5 1.42857143 5 0 0 Z " fill="#694A85" transform="translate(270,130)"/>
<path d="M0 0 C3.875 1.75 3.875 1.75 5 4 C3.35 4.33 1.7 4.66 0 5 C-0.33 5.99 -0.66 6.98 -1 8 C-1.33 7.34 -1.66 6.68 -2 6 C-1.34 5.01 -0.68 4.02 0 3 C0 2.01 0 1.02 0 0 Z " fill="#ADACC0" transform="translate(353,233)"/>
<path d="M0 0 C0.66 0.33 1.32 0.66 2 1 C2 1.99 2 2.98 2 4 C2.94978897 6.15028304 2.94978897 6.15028304 4 8 C3.4225 7.525625 2.845 7.05125 2.25 6.5625 C0.07417916 5.0515133 -1.42602448 4.45963849 -4 4 C-2.68 2.68 -1.36 1.36 0 0 Z " fill="#795E92" transform="translate(355,229)"/>
<path d="M0 0 C0.66 0 1.32 0 2 0 C3.06775224 1.96466413 4.06553465 3.96855359 5 6 C4.67 6.66 4.34 7.32 4 8 C2.35 6.02 0.7 4.04 -1 2 C-0.67 1.34 -0.34 0.68 0 0 Z " fill="#B29CCB" transform="translate(337,277)"/>
<path d="M0 0 C2.875 0.3125 2.875 0.3125 6 1 C6.66 1.99 7.32 2.98 8 4 C5.6875 4.25 5.6875 4.25 3 4 C1.1875 2 1.1875 2 0 0 Z " fill="#D3BADF" transform="translate(207,305)"/>
<path d="M0 0 C2.475 0.495 2.475 0.495 5 1 C5.33 2.32 5.66 3.64 6 5 C5.34 4.67 4.68 4.34 4 4 C4 3.34 4 2.68 4 2 C3.34 2 2.68 2 2 2 C1.67 3.32 1.34 4.64 1 6 C0 3 0 3 0 0 Z " fill="#F7F4FA" transform="translate(376,263)"/>
<path d="M0 0 C0.78375 0.474375 1.5675 0.94875 2.375 1.4375 C3.88948678 2.33898023 5.4235897 3.21179485 7 4 C6 5 6 5 2.4375 5.0625 C1.303125 5.041875 0.16875 5.02125 -1 5 C-0.67 3.35 -0.34 1.7 0 0 Z " fill="#8574A4" transform="translate(321,192)"/>
<path d="M0 0 C0.99 0.33 1.98 0.66 3 1 C4.1875 4.0625 4.1875 4.0625 5 7 C4.34 7 3.68 7 3 7 C3 6.34 3 5.68 3 5 C1.68 4.34 0.36 3.68 -1 3 C-0.67 2.01 -0.34 1.02 0 0 Z " fill="#C1B3CF" transform="translate(402,124)"/>
<path d="M0 0 C0.33 0.66 0.66 1.32 1 2 C1.66 2 2.32 2 3 2 C3 2.66 3 3.32 3 4 C0 6 0 6 -3 6 C-3 5.01 -3 4.02 -3 3 C-2.01 3 -1.02 3 0 3 C0 2.01 0 1.02 0 0 Z " fill="#D4C1E3" transform="translate(235,303)"/>
<path d="M0 0 C0.66 0.33 1.32 0.66 2 1 C0.875 2.9375 0.875 2.9375 -1 5 C-4.1875 5.75 -4.1875 5.75 -7 6 C-4.74259377 3.66475218 -2.7194239 1.81294927 0 0 Z " fill="#997AAF" transform="translate(346,182)"/>
<path d="M0 0 C2.86724686 0.57344937 3.8614515 0.8614515 6 3 C5.67 3.99 5.34 4.98 5 6 C4.34 5.67 3.68 5.34 3 5 C3 4.34 3 3.68 3 3 C2.01 3 1.02 3 0 3 C0 2.01 0 1.02 0 0 Z " fill="#C5C9D9" transform="translate(310,183)"/>
<path d="M0 0 C0.99 0.33 1.98 0.66 3 1 C3.33 2.65 3.66 4.3 4 6 C2.68 5.67 1.36 5.34 0 5 C-0.5625 3.0625 -0.5625 3.0625 -1 1 C-0.67 0.67 -0.34 0.34 0 0 Z " fill="#D8CDE3" transform="translate(352,128)"/>
<path d="M0 0 C3.60654039 2.40436026 3.85452932 3.94679607 5 8 C4.01 8 3.02 8 2 8 C0 2.25 0 2.25 0 0 Z " fill="#D7C5E3" transform="translate(395,111)"/>
<path d="M0 0 C1.32 0 2.64 0 4 0 C4.66 1.65 5.32 3.3 6 5 C4.35 5 2.7 5 1 5 C0.67 3.35 0.34 1.7 0 0 Z " fill="#B9B8D0" transform="translate(326,263)"/>
<path d="M0 0 C0.99 0 1.98 0 3 0 C1.92598892 2.91517292 1.22189824 4.77810176 -1 7 C-1.04254356 5.00045254 -1.04080783 2.99958364 -1 1 C-0.67 0.67 -0.34 0.34 0 0 Z " fill="#C5AFD7" transform="translate(401,187)"/>
<path d="M0 0 C2.475 0.495 2.475 0.495 5 1 C5.33 2.98 5.66 4.96 6 7 C3.95880212 5.38405168 1.95927063 3.7143618 0 2 C0 1.34 0 0.68 0 0 Z " fill="#9B82B1" transform="translate(248,173)"/>
</svg>
